<svg version="1.1" xmlns="http://www.w3.org/2000/svg" xmlns:xlink="http://www.w3.org/1999/xlink" width="400" height="400"><g fill="none" fill-rule="nonzero" stroke="none" stroke-width="1" stroke-linecap="butt" stroke-linejoin="miter" stroke-miterlimit="10" stroke-dasharray="" stroke-dashoffset="0" font-family="none" font-weight="none" font-size="none" text-anchor="none" style="mix-blend-mode: normal"><g><g><path d="M0,0v50l50,-50z" fill="#021b21" stroke="#021b21"></path><path d="M50,50h-50l50,-50z" fill="#065f73" stroke="#065f73"></path><path d="M0,50v50l50,-50z" fill="#032c36" stroke="#032c36"></path><path d="M50,100h-50l50,-50z" fill="#e8dfd6" stroke="#e8dfd6"></path><path d="M0,100v50h50z" fill="#032c36" stroke="#032c36"></path><path d="M0,100h50v50z" fill="#021b21" stroke="#021b21"></path><path d="M0,150v50l50,-50z" fill="#021b21" stroke="#021b21"></path><path d="M50,200h-50l50,-50z" fill="#032c36" stroke="#032c36"></path><path d="M50,0v50h50z" fill="#021b21" stroke="#021b21"></path><path d="M50,0h50v50z" fill="#e8dfd6" stroke="#e8dfd6"></path><path d="M50,50v50l50,-50z" fill="#032c36" stroke="#032c36"></path><path d="M100,100h-50l50,-50z" fill="#032c36" stroke="#032c36"></path><path d="M50,100v50l50,-50z" fill="#021b21" stroke="#021b21"></path><path d="M100,150h-50l50,-50z" fill="#065f73" stroke="#065f73"></path><path d="M50,150v50l50,-50z" fill="#032c36" stroke="#032c36"></path><path d="M100,200h-50l50,-50z" fill="#032c36" stroke="#032c36"></path><path d="M100,0v50h50z" fill="#021b21" stroke="#021b21"></path><path d="M100,0h50v50z" fill="#ff2a1d" stroke="#ff2a1d"></path><path d="M100,50v50h50z" fill="#ff2a1d" stroke="#ff2a1d"></path><path d="M100,50h50v50z" fill="#ff2a1d" stroke="#ff2a1d"></path><path d="M100,100v50h50z" fill="#021b21" stroke="#021b21"></path><path d="M100,100h50v50z" fill="#e8dfd6" stroke="#e8dfd6"></path><path d="M100,150v50l50,-50z" fill="#ff2a1d" stroke="#ff2a1d"></path><path d="M150,200h-50l50,-50z" fill="#065f73" stroke="#065f73"></path><path d="M150,0v50h50z" fill="#065f73" stroke="#065f73"></path><path d="M150,0h50v50z" fill="#e8dfd6" stroke="#e8dfd6"></path><path d="M150,50v50h50z" fill="#e8dfd6" stroke="#e8dfd6"></path><path d="M150,50h50v50z" fill="#065f73" stroke="#065f73"></path><path d="M150,100v50h50z" fill="#ff2a1d" stroke="#ff2a1d"></path><path d="M150,100h50v50z" fill="#032c36" stroke="#032c36"></path><path d="M150,150v50l50,-50z" fill="#032c36" stroke="#032c36"></path><path d="M200,200h-50l50,-50z" fill="#032c36" stroke="#032c36"></path></g><g><path d="M400,0v50l-50,-50z" fill="#021b21" stroke="#021b21"></path><path d="M350,50h50l-50,-50z" fill="#065f73" stroke="#065f73"></path><path d="M400,50v50l-50,-50z" fill="#032c36" stroke="#032c36"></path><path d="M350,100h50l-50,-50z" fill="#e8dfd6" stroke="#e8dfd6"></path><path d="M400,100v50h-50z" fill="#032c36" stroke="#032c36"></path><path d="M400,100h-50v50z" fill="#021b21" stroke="#021b21"></path><path d="M400,150v50l-50,-50z" fill="#021b21" stroke="#021b21"></path><path d="M350,200h50l-50,-50z" fill="#032c36" stroke="#032c36"></path><path d="M350,0v50h-50z" fill="#021b21" stroke="#021b21"></path><path d="M350,0h-50v50z" fill="#e8dfd6" stroke="#e8dfd6"></path><path d="M350,50v50l-50,-50z" fill="#032c36" stroke="#032c36"></path><path d="M300,100h50l-50,-50z" fill="#032c36" stroke="#032c36"></path><path d="M350,100v50l-50,-50z" fill="#021b21" stroke="#021b21"></path><path d="M300,150h50l-50,-50z" fill="#065f73" stroke="#065f73"></path><path d="M350,150v50l-50,-50z" fill="#032c36" stroke="#032c36"></path><path d="M300,200h50l-50,-50z" fill="#032c36" stroke="#032c36"></path><path d="M300,0v50h-50z" fill="#021b21" stroke="#021b21"></path><path d="M300,0h-50v50z" fill="#ff2a1d" stroke="#ff2a1d"></path><path d="M300,50v50h-50z" fill="#ff2a1d" stroke="#ff2a1d"></path><path d="M300,50h-50v50z" fill="#ff2a1d" stroke="#ff2a1d"></path><path d="M300,100v50h-50z" fill="#021b21" stroke="#021b21"></path><path d="M300,100h-50v50z" fill="#e8dfd6" stroke="#e8dfd6"></path><path d="M300,150v50l-50,-50z" fill="#ff2a1d" stroke="#ff2a1d"></path><path d="M250,200h50l-50,-50z" fill="#065f73" stroke="#065f73"></path><path d="M250,0v50h-50z" fill="#065f73" stroke="#065f73"></path><path d="M250,0h-50v50z" fill="#e8dfd6" stroke="#e8dfd6"></path><path d="M250,50v50h-50z" fill="#e8dfd6" stroke="#e8dfd6"></path><path d="M250,50h-50v50z" fill="#065f73" stroke="#065f73"></path><path d="M250,100v50h-50z" fill="#ff2a1d" stroke="#ff2a1d"></path><path d="M250,100h-50v50z" fill="#032c36" stroke="#032c36"></path><path d="M250,150v50l-50,-50z" fill="#032c36" stroke="#032c36"></path><path d="M200,200h50l-50,-50z" fill="#032c36" stroke="#032c36"></path></g><g><path d="M0,400v-50l50,50z" fill="#021b21" stroke="#021b21"></path><path d="M50,350h-50l50,50z" fill="#065f73" stroke="#065f73"></path><path d="M0,350v-50l50,50z" fill="#032c36" stroke="#032c36"></path><path d="M50,300h-50l50,50z" fill="#e8dfd6" stroke="#e8dfd6"></path><path d="M0,300v-50h50z" fill="#032c36" stroke="#032c36"></path><path d="M0,300h50v-50z" fill="#021b21" stroke="#021b21"></path><path d="M0,250v-50l50,50z" fill="#021b21" stroke="#021b21"></path><path d="M50,200h-50l50,50z" fill="#032c36" stroke="#032c36"></path><path d="M50,400v-50h50z" fill="#021b21" stroke="#021b21"></path><path d="M50,400h50v-50z" fill="#e8dfd6" stroke="#e8dfd6"></path><path d="M50,350v-50l50,50z" fill="#032c36" stroke="#032c36"></path><path d="M100,300h-50l50,50z" fill="#032c36" stroke="#032c36"></path><path d="M50,300v-50l50,50z" fill="#021b21" stroke="#021b21"></path><path d="M100,250h-50l50,50z" fill="#065f73" stroke="#065f73"></path><path d="M50,250v-50l50,50z" fill="#032c36" stroke="#032c36"></path><path d="M100,200h-50l50,50z" fill="#032c36" stroke="#032c36"></path><path d="M100,400v-50h50z" fill="#021b21" stroke="#021b21"></path><path d="M100,400h50v-50z" fill="#ff2a1d" stroke="#ff2a1d"></path><path d="M100,350v-50h50z" fill="#ff2a1d" stroke="#ff2a1d"></path><path d="M100,350h50v-50z" fill="#ff2a1d" stroke="#ff2a1d"></path><path d="M100,300v-50h50z" fill="#021b21" stroke="#021b21"></path><path d="M100,300h50v-50z" fill="#e8dfd6" stroke="#e8dfd6"></path><path d="M100,250v-50l50,50z" fill="#ff2a1d" stroke="#ff2a1d"></path><path d="M150,200h-50l50,50z" fill="#065f73" stroke="#065f73"></path><path d="M150,400v-50h50z" fill="#065f73" stroke="#065f73"></path><path d="M150,400h50v-50z" fill="#e8dfd6" stroke="#e8dfd6"></path><path d="M150,350v-50h50z" fill="#e8dfd6" stroke="#e8dfd6"></path><path d="M150,350h50v-50z" fill="#065f73" stroke="#065f73"></path><path d="M150,300v-50h50z" fill="#ff2a1d" stroke="#ff2a1d"></path><path d="M150,300h50v-50z" fill="#032c36" stroke="#032c36"></path><path d="M150,250v-50l50,50z" fill="#032c36" stroke="#032c36"></path><path d="M200,200h-50l50,50z" fill="#032c36" stroke="#032c36"></path></g><g><path d="M400,400v-50l-50,50z" fill="#021b21" stroke="#021b21"></path><path d="M350,350h50l-50,50z" fill="#065f73" stroke="#065f73"></path><path d="M400,350v-50l-50,50z" fill="#032c36" stroke="#032c36"></path><path d="M350,300h50l-50,50z" fill="#e8dfd6" stroke="#e8dfd6"></path><path d="M400,300v-50h-50z" fill="#032c36" stroke="#032c36"></path><path d="M400,300h-50v-50z" fill="#021b21" stroke="#021b21"></path><path d="M400,250v-50l-50,50z" fill="#021b21" stroke="#021b21"></path><path d="M350,200h50l-50,50z" fill="#032c36" stroke="#032c36"></path><path d="M350,400v-50h-50z" fill="#021b21" stroke="#021b21"></path><path d="M350,400h-50v-50z" fill="#e8dfd6" stroke="#e8dfd6"></path><path d="M350,350v-50l-50,50z" fill="#032c36" stroke="#032c36"></path><path d="M300,300h50l-50,50z" fill="#032c36" stroke="#032c36"></path><path d="M350,300v-50l-50,50z" fill="#021b21" stroke="#021b21"></path><path d="M300,250h50l-50,50z" fill="#065f73" stroke="#065f73"></path><path d="M350,250v-50l-50,50z" fill="#032c36" stroke="#032c36"></path><path d="M300,200h50l-50,50z" fill="#032c36" stroke="#032c36"></path><path d="M300,400v-50h-50z" fill="#021b21" stroke="#021b21"></path><path d="M300,400h-50v-50z" fill="#ff2a1d" stroke="#ff2a1d"></path><path d="M300,350v-50h-50z" fill="#ff2a1d" stroke="#ff2a1d"></path><path d="M300,350h-50v-50z" fill="#ff2a1d" stroke="#ff2a1d"></path><path d="M300,300v-50h-50z" fill="#021b21" stroke="#021b21"></path><path d="M300,300h-50v-50z" fill="#e8dfd6" stroke="#e8dfd6"></path><path d="M300,250v-50l-50,50z" fill="#ff2a1d" stroke="#ff2a1d"></path><path d="M250,200h50l-50,50z" fill="#065f73" stroke="#065f73"></path><path d="M250,400v-50h-50z" fill="#065f73" stroke="#065f73"></path><path d="M250,400h-50v-50z" fill="#e8dfd6" stroke="#e8dfd6"></path><path d="M250,350v-50h-50z" fill="#e8dfd6" stroke="#e8dfd6"></path><path d="M250,350h-50v-50z" fill="#065f73" stroke="#065f73"></path><path d="M250,300v-50h-50z" fill="#ff2a1d" stroke="#ff2a1d"></path><path d="M250,300h-50v-50z" fill="#032c36" stroke="#032c36"></path><path d="M250,250v-50l-50,50z" fill="#032c36" stroke="#032c36"></path><path d="M200,200h50l-50,50z" fill="#032c36" stroke="#032c36"></path></g></g></g></svg>
